<?xml version="1.0" encoding="UTF-8"?>
<svg width="20px" height="20px" viewBox="0 0 20 20" version="1.1" xmlns="http://www.w3.org/2000/svg" xmlns:xlink="http://www.w3.org/1999/xlink">
    <title>ss</title>
    <g id="页面-1" stroke="none" stroke-width="1" fill="none" fill-rule="evenodd">
        <g id="0首页【美衣网】" transform="translate(-1515.000000, -82.000000)" fill="#616161" fill-rule="nonzero">
            <g id="nav2" transform="translate(0.000000, 40.000000)">
                <g id="ss" transform="translate(1515.000000, 42.000000)">
                    <path d="M19.3026005,16.6146706 L16.536643,14.0016052 C17.7568074,12.5062418 18.5071434,10.6528714 18.4830575,8.6786944 C18.5071434,3.95338758 14.4903244,0.162037037 9.57052797,0.162037037 C4.57247724,0.162037037 0.555555556,3.95338758 0.555555556,8.6786944 C0.555555556,13.3139596 4.58387553,17.1053102 9.57052797,17.0985716 C11.0762799,17.1053102 12.5316669,16.7355665 13.7706856,16.1307696 L16.8439716,18.9373953 C17.5085095,19.5820597 18.6224613,19.5820597 19.3026005,18.9373953 C19.9851217,18.2958557 19.9851217,17.2443881 19.3026005,16.6146706 Z M2.77777778,8.72861889 C2.77777778,5.2087849 5.76839579,2.38425926 9.49533503,2.38425926 C13.1203912,2.38425926 16.1111111,5.2087849 16.1111111,8.72861889 C16.1111111,12.15223 13.1203912,14.9768519 9.49533503,14.9768519 C5.76839579,14.9768519 2.77777778,12.15223 2.77777778,8.72861889 Z" id="形状"></path>
                    <path d="M5.3459956,4.95364231 C3.88478862,6.41381964 3.24181564,8.50318408 3.6292079,10.5324074 C4.000512,8.84697541 4.87347163,7.20006193 6.23327414,5.83907436 C7.59406416,4.47759296 9.24073858,3.60500042 10.9259259,3.23364242 C8.96571679,2.86425972 6.86231858,3.43660537 5.3459956,4.95364231 Z" id="路径"></path>
                </g>
            </g>
        </g>
    </g>
</svg>